<svg viewBox="0 0 4500 4500" xmlns="http://www.w3.org/2000/svg" xml:space="preserve" style="fill-rule:evenodd;clip-rule:evenodd;stroke-linejoin:round;stroke-miterlimit:2"><g transform="scale(4.16667)"><circle cx="540" cy="540" r="540" style="fill:url(#a)"/><path d="M321.58 560.017c7.006-4.303 14.656-6.871 22.487-6.871l.174.001.174-.001c7.831 0 15.482 2.568 22.487 6.871 1.948-12.263 10.544-16.417 22.624-10.637l8.351 3.995c.601.288 1.277 1.002 1.792 1.893.514.891.794 1.834.743 2.498l-.715 9.229c-.699 9.021-4.529 14.397-10.516 15.565 6.971 10.925 11.226 23.397 11.226 34.655 0 7.519 2.206 45.14-55.992 45.14h-.348c-58.198 0-55.992-37.621-55.992-45.14 0-11.258 4.255-23.73 11.227-34.655-5.987-1.168-9.818-6.544-10.516-15.565l-.715-9.229c-.052-.664.229-1.607.743-2.498s1.19-1.605 1.792-1.893l8.35-3.995c12.08-5.78 20.676-1.626 22.624 10.637m22.487 84.492c22.023 0 21.188-11.535 21.188-13.841 0-8.653-10.116-19.645-21.188-19.645s-21.187 10.992-21.187 19.645c0 2.306-.835 13.841 21.187 13.841M319.4 596.461a5.53 5.53 0 0 0-5.526 5.525 5.53 5.53 0 0 0 5.526 5.526 5.53 5.53 0 0 0 5.525-5.526 5.53 5.53 0 0 0-5.525-5.525m49.335 0a5.53 5.53 0 0 0-5.525 5.525 5.53 5.53 0 0 0 5.525 5.526 5.53 5.53 0 0 0 5.526-5.526 5.53 5.53 0 0 0-5.526-5.525m-32.502 25.663c2.092.294 3.413 3.218 2.948 6.524s-2.54 5.753-4.632 5.459-3.413-3.218-2.949-6.524c.465-3.307 2.541-5.753 4.633-5.459m15.669 0c2.092-.294 4.168 2.152 4.633 5.459s-.857 6.23-2.949 6.524-4.167-2.152-4.632-5.459.856-6.23 2.948-6.524" style="fill:#fff" transform="matrix(6.67765 0 0 6.49325 -1758.722 -3385.709)"/></g><defs><linearGradient id="a" x1="0" y1="0" x2="1" y2="0" gradientUnits="userSpaceOnUse" gradientTransform="translate(0 540)scale(1080)"><stop offset="0" style="stop-color:#f98e39;stop-opacity:1"/><stop offset="1" style="stop-color:#e9570b;stop-opacity:1"/></linearGradient></defs></svg>
