<svg width="120" height="120" xmlns="http://www.w3.org/2000/svg" xml:space="preserve" style="fill-rule:evenodd;clip-rule:evenodd;stroke-linejoin:round;stroke-miterlimit:2"><path d="M637.563 297.385v330.064c0 39.036-31.692 70.728-70.728 70.728H236.771c-39.036 0-70.729-31.692-70.729-70.728V297.385c0-39.036 31.693-70.728 70.729-70.728h330.064c39.036 0 70.728 31.692 70.728 70.728" style="fill:#fbe9f2" transform="translate(-42.257 -57.683)scale(.2545)"/><path d="M610.005 730.775v24.709c0 17.454-14.17 31.623-31.623 31.623H433.413c-17.453 0-31.623-14.169-31.623-31.623v-13.948q-1.208-.537-2.404-1.088c-27.326-13.068-50.458-31.902-67.193-54.598-18.402-24.958-29.068-54.585-29.068-86.349 0-29.415 9.146-56.997 25.113-80.736 0 0-64.593-19.637 11.417-80.222l-33.629-12.096a4.364 4.364 0 0 1-1.015-7.686 1134 1134 0 0 0 19.076-13.327c16.81-12.028 21.988-16.672 21.988-16.672-2.781-2.929-5.197-5.859-7.162-8.789-9.239-13.777-8.505-27.554 11.237-41.331 5.076-22.866 22.792-33.093 51.64-32.188 97.52-87.978 150.47 30.3 68.69 68.793 15.167 16.447 24.883 38.723 25.976 63.413q.104 2.321.104 4.669c0 15.697-3.484 30.526-9.665 43.638a245 245 0 0 1 7.034-.101c28.209 0 54.924 4.857 78.751 13.521 61.982-120.166 195.584-147.531 163.375-48.712 20.067 22.08 15.904 54.909-7.604 82.852 19.229 104.978-62.607 187.162-118.446 196.248M469.527 575.751c32.86-2.739 62.206-.171 87.343 7.928 7.441 2.398 15.429-1.697 17.826-9.138s-1.697-15.429-9.138-17.826c-28.322-9.126-61.362-12.282-98.384-9.195-7.791.649-13.589 7.502-12.939 15.292.649 7.791 7.501 13.589 15.292 12.939" style="fill:#ee4899" transform="translate(-40.206 -41.18)scale(.1906)"/></svg>