<?xml version="1.0" encoding="UTF-8" standalone="no"?><!DOCTYPE svg PUBLIC "-//W3C//DTD SVG 1.1//EN" "http://www.w3.org/Graphics/SVG/1.1/DTD/svg11.dtd"><svg width="120px" height="120px" version="1.1" xmlns="http://www.w3.org/2000/svg" xmlns:xlink="http://www.w3.org/1999/xlink" xml:space="preserve" xmlns:serif="http://www.serif.com/" style="fill-rule:evenodd;clip-rule:evenodd;stroke-linejoin:round;stroke-miterlimit:2;"><g transform="matrix(1,0,0,1,-480,-480)"><g id="Layer1"><g transform="matrix(0.254496,0,0,0.254496,437.742906,422.316879)"><rect x="166.042" y="226.657" width="471.521" height="471.521" style="fill:none;"/></g><g transform="matrix(0.234158,0,0,0.234158,416.888536,415.692695)"><path d="M610.005,730.775L610.005,755.484C610.005,772.938 595.835,787.107 578.382,787.107L433.413,787.107C415.96,787.107 401.79,772.938 401.79,755.484L401.79,741.536C400.985,741.178 400.183,740.815 399.386,740.448C372.06,727.38 348.928,708.546 332.193,685.85C313.791,660.892 303.125,631.265 303.125,599.501C303.125,570.086 312.271,542.504 328.238,518.765C328.238,518.765 263.645,499.128 339.655,438.543L306.026,426.447C304.491,425.895 303.392,424.531 303.178,422.913C302.965,421.296 303.671,419.694 305.011,418.761C312.603,413.562 318.899,409.146 324.087,405.434C340.897,393.406 346.075,388.762 346.075,388.762C343.294,385.833 340.878,382.903 338.913,379.973C329.674,366.196 330.408,352.419 350.15,338.642C355.226,315.776 372.942,305.549 401.79,306.454C499.31,218.476 552.26,336.754 470.48,375.247C485.647,391.694 495.363,413.97 496.456,438.66C496.525,440.207 496.56,441.764 496.56,443.329C496.56,459.026 493.076,473.855 486.895,486.967C489.229,486.9 491.574,486.866 493.929,486.866C522.138,486.866 548.853,491.723 572.68,500.387C634.662,380.221 768.264,352.856 736.055,451.675C756.122,473.755 751.959,506.584 728.451,534.527C747.68,639.505 665.844,721.689 610.005,730.775ZM469.527,575.751C502.387,573.012 531.733,575.58 556.87,583.679C564.311,586.077 572.299,581.982 574.696,574.541C577.094,567.1 572.999,559.112 565.558,556.715C537.236,547.589 504.196,544.433 467.174,547.52C459.383,548.169 453.585,555.022 454.235,562.812C454.884,570.603 461.736,576.401 469.527,575.751Z" style="fill:rgb(238,72,153);"/></g></g></g></svg>