<?xml version="1.0" encoding="UTF-8" standalone="no"?>
<!DOCTYPE svg PUBLIC "-//W3C//DTD SVG 1.1//EN" "http://www.w3.org/Graphics/SVG/1.1/DTD/svg11.dtd">
<svg width="100%" height="100%" viewBox="0 0 513 502" version="1.1" xmlns="http://www.w3.org/2000/svg" xmlns:xlink="http://www.w3.org/1999/xlink" xml:space="preserve" xmlns:serif="http://www.serif.com/" style="fill-rule:evenodd;clip-rule:evenodd;stroke-linejoin:round;stroke-miterlimit:2;">
    <g transform="matrix(1,0,0,1,-283.256944,-291.669577)">
        <g id="Layer2">
            <path d="M404.865,681.275C365.596,652.424 340.107,605.913 340.107,553.449C340.107,465.906 411.075,394.938 498.617,394.938L621.652,394.938C646.737,359 671.822,348.2 696.908,349.932L696.908,439.945C706.598,452.349 716.288,466.137 725.978,481.243C733.33,492.703 746.01,499.633 759.626,499.633C761.78,499.655 763.956,499.655 766.086,499.655C771.39,499.655 776.477,501.762 780.228,505.513C783.979,509.264 786.086,514.351 786.086,519.655L786.086,582.475C786.086,587.78 783.979,592.867 780.228,596.617C776.477,600.368 771.39,602.475 766.086,602.475L760.474,602.475C746.201,602.475 733.01,610.08 725.858,622.431C712.656,645.475 696.189,665.267 676.505,681.842L676.505,739.639C676.505,751.249 671.893,762.383 663.684,770.593C655.474,778.803 644.339,783.415 632.729,783.415C621.119,783.415 609.984,778.803 601.774,770.593C593.564,762.383 588.952,751.249 588.952,739.639L588.952,711.96L498.617,711.96C496.541,711.96 494.475,711.92 492.418,711.841L492.418,739.639C492.418,751.249 487.806,762.383 479.597,770.593C471.387,778.803 460.252,783.415 448.642,783.415C437.032,783.415 425.897,778.803 417.687,770.593C409.477,762.383 404.865,751.249 404.865,739.639L404.865,681.275Z" style="fill:rgb(253,190,185);"/>
            <path d="M404.865,681.275C365.596,652.424 340.107,605.913 340.107,553.449C340.107,487.167 380.791,430.386 438.549,406.716C421.212,595.08 505.52,681.8 676.505,681.842L676.505,739.639C676.505,751.249 671.893,762.383 663.684,770.593C655.474,778.803 644.339,783.415 632.729,783.415C621.119,783.415 609.984,778.803 601.774,770.593C593.564,762.383 588.952,751.249 588.952,739.639L588.952,711.96L498.617,711.96C496.541,711.96 494.475,711.92 492.418,711.841L492.418,739.639C492.418,751.249 487.806,762.383 479.597,770.593C471.387,778.803 460.252,783.415 448.642,783.415C437.032,783.415 425.897,778.803 417.687,770.593C409.477,762.383 404.865,751.249 404.865,739.639L404.865,681.275Z" style="fill:rgb(253,125,160);"/>
            <g transform="matrix(1,0,0,1,15.31052,23.059407)">
                <circle cx="533.008" cy="361.879" r="83.269" style="fill:rgb(253,203,80);"/>
            </g>
            <g transform="matrix(1.693875,0,0,1.204081,-211.675012,-88.708365)">
                <path d="M501.867,373.31C513.52,359.155 525.228,354.885 536.8,356.009C539.895,356.31 542.297,359.93 542.297,364.295L542.297,436.209C547.705,446.104 553.115,457.004 558.524,468.865C561.779,476.002 567.392,480.318 573.42,480.318L573.48,480.318C574.731,480.336 575.996,480.336 577.233,480.336C581.93,480.336 586.435,482.961 589.757,487.633C593.078,492.306 594.944,498.643 594.944,505.251L594.944,557.424C594.944,564.032 593.078,570.369 589.757,575.042C586.435,579.714 581.93,582.339 577.233,582.339L573.92,582.339C567.603,582.339 561.765,587.072 558.597,594.76C550.927,613.588 541.468,629.911 530.252,643.761L530.252,664.962L530.252,664.989L530.252,687.949C530.252,699.794 526.907,711.154 520.953,719.53C515,727.906 506.924,732.611 498.504,732.611C490.084,732.611 482.009,727.906 476.055,719.53C470.102,711.154 466.757,699.794 466.757,687.949L466.757,673.267L421.574,673.267L421.574,687.949C421.574,699.794 418.229,711.154 412.275,719.53C406.322,727.906 398.246,732.611 389.826,732.611C381.406,732.611 373.331,727.906 367.377,719.53C361.423,711.154 358.079,699.794 358.079,687.949L358.079,643.602C334.805,617.988 319.848,578.109 319.848,533.317C319.848,526.252 320.22,519.308 320.939,512.524C311.296,510.56 304.073,505.063 299.24,496.407C293.516,486.158 290.998,470.941 292.726,450.209C293.105,445.656 296.041,442.393 299.277,442.927C302.513,443.461 304.832,447.59 304.453,452.143C303.188,467.322 304.334,478.642 308.524,486.146C311.785,491.984 316.818,495.12 323.376,496.242C332.694,448.408 359.602,410.805 393.709,398.053C393.643,396.503 393.609,394.941 393.609,393.368C393.609,350.616 418.282,315.907 448.672,315.907C474.132,315.907 495.579,340.268 501.867,373.31ZM395.69,414.514C358.752,429.03 331.655,476.722 331.655,533.317C331.655,567.906 341.776,599.168 358.079,621.566L358.079,610.762C358.079,606.179 360.724,602.457 363.982,602.457C367.241,602.457 369.886,606.179 369.886,610.762L369.886,687.949C369.886,695.389 371.987,702.524 375.726,707.785C379.466,713.045 384.538,716.001 389.826,716.001C395.115,716.001 400.187,713.045 403.926,707.785C407.666,702.524 409.767,695.389 409.767,687.949L409.767,663.42L409.856,663.42C410.358,659.393 412.913,656.403 415.897,656.564C417.036,656.626 418.18,656.657 419.33,656.657L466.757,656.657L466.757,639.949C466.757,635.365 469.402,631.644 472.66,631.644C475.919,631.644 478.564,635.365 478.564,639.949L478.564,687.949C478.564,695.389 480.665,702.524 484.404,707.785C488.144,713.045 493.216,716.001 498.504,716.001C503.793,716.001 508.865,713.045 512.604,707.785C516.344,702.524 518.445,695.389 518.445,687.949L518.445,664.989L518.445,664.962L518.445,639.949C518.445,637.499 519.214,635.174 520.546,633.596C531.641,620.452 540.92,604.752 548.362,586.479L548.376,586.446C553.653,573.624 563.388,565.729 573.92,565.729L577.233,565.729C578.799,565.729 580.301,564.854 581.408,563.296C582.515,561.739 583.137,559.627 583.137,557.424L583.137,505.251C583.137,503.049 582.515,500.936 581.408,499.379C580.301,497.821 578.799,496.946 577.233,496.946C575.965,496.946 574.67,496.946 573.396,496.928C563.356,496.917 554.008,489.723 548.586,477.834C542.97,465.519 537.356,454.276 531.741,444.164C530.93,442.704 530.489,440.904 530.489,439.051L530.489,372.645C521.536,373.769 512.676,380.047 503.732,394.042C503.578,419.5 494.674,442.045 481.049,456.012L488.461,456.012C491.719,456.012 494.365,459.733 494.365,464.317C494.365,468.9 491.719,472.622 488.461,472.622L408.883,472.622C405.624,472.622 402.979,468.9 402.979,464.317C402.979,459.733 405.624,456.012 408.883,456.012L416.295,456.012C406.464,445.935 399.092,431.393 395.69,414.514ZM491.772,388.186C489.901,357.023 471.305,332.517 448.672,332.517C424.799,332.517 405.417,359.784 405.417,393.368C405.417,393.821 405.42,394.273 405.427,394.724C405.516,400.419 406.162,405.923 407.292,411.131C412.7,436.061 429.191,454.218 448.672,454.218C468.452,454.218 485.15,435.5 490.293,409.978C491.357,404.697 491.927,399.125 491.927,393.368C491.927,391.623 491.875,389.895 491.772,388.186ZM513.589,478.09C513.589,473.507 516.234,469.785 519.492,469.785C522.751,469.785 525.396,473.507 525.396,478.09L525.396,489.727C525.396,494.31 522.751,498.032 519.492,498.032C516.234,498.032 513.589,494.31 513.589,489.727L513.589,478.09Z" style="fill:rgb(5,42,117);"/>
            </g>
            <path d="M538.319,345.726L538.319,338.331C538.319,332.812 542.8,328.331 548.319,328.331C553.838,328.331 558.319,332.812 558.319,338.331L558.319,345.563C559.163,345.931 559.996,346.35 560.812,346.821L567.547,350.71C572.327,353.469 573.967,359.59 571.207,364.37C568.448,369.15 562.327,370.79 557.547,368.03L550.812,364.142C550.07,363.714 549.259,363.514 548.459,363.522C548.45,363.522 548.442,363.522 548.433,363.522C546.858,363.546 545.334,364.374 544.49,365.836C543.212,368.048 543.971,370.881 546.184,372.159L560.454,380.398C572.226,387.194 576.265,402.269 569.469,414.041C566.797,418.669 562.846,422.101 558.319,424.15L558.319,431.546C558.319,437.065 553.838,441.546 548.319,441.546C542.8,441.546 538.319,437.065 538.319,431.546L538.319,424.314C537.475,423.946 536.642,423.527 535.826,423.056L529.091,419.167C524.311,416.408 522.671,410.287 525.431,405.507C528.19,400.727 534.311,399.087 539.091,401.847L545.826,405.735C546.568,406.163 547.379,406.363 548.179,406.355C548.187,406.355 548.196,406.355 548.205,406.355C549.78,406.331 551.304,405.503 552.148,404.041C553.426,401.829 552.666,398.996 550.454,397.718L536.184,389.479C524.412,382.683 520.373,367.608 527.169,355.836C529.841,351.208 533.792,347.776 538.319,345.726Z" style="fill:white;"/>
        </g>
    </g>
</svg>
